Coordinates
version=1
nRows=17
nColumns=36
inDegrees=yes

Units are S.I. units (second, meters, Newtons, ...)
If the header above contains a line with 'inDegrees', this indicates whether rotational values are in degrees (yes) or radians (no).

endheader
time	pelvis_tilt	pelvis_list	pelvis_rotation	pelvis_tx	pelvis_ty	pelvis_tz	hip_flexion_r	hip_adduction_r	hip_rotation_r	knee_angle_r	knee_angle_r_beta	ankle_angle_r	subtalar_angle_r	mtp_angle_r	hip_flexion_l	hip_adduction_l	hip_rotation_l	knee_angle_l	knee_angle_l_beta	ankle_angle_l	subtalar_angle_l	mtp_angle_l	lumbar_extension	lumbar_bending	lumbar_rotation	arm_flex_r	arm_add_r	arm_rot_r	elbow_flex_r	pro_sup_r	arm_flex_l	arm_add_l	arm_rot_l	elbow_flex_l	pro_sup_l
      2.48333330	     -1.56387562	     -3.09439400	     -2.64968727	      0.05501958	      1.03080224	      0.05846129	     -0.93668070	      1.61277965	    -12.62839630	      2.03260986	      0.03547573	      5.24434595	      0.61397301	     -7.49999987	      1.02968015	     -0.80249519	    -11.10917181	      1.02425628	      0.01787664	      5.23725587	      6.68412554	     -7.49999987	      0.53667697	     -0.02087376	      4.87702417	     39.72720182	     13.97595230	     43.82238442	    116.11667104	     92.39773602	     62.28882734	     15.95133868	     70.06587660	    114.60625794	     66.73091400
      2.50000000	     -1.68606220	     -3.08802137	     -3.35415534	      0.05201718	      1.03316482	      0.05717187	     -0.58934855	      1.52210910	    -11.97703663	      2.23397991	      0.03899030	      5.57758777	      0.62122931	     -7.49999987	      1.17681604	     -0.77142154	    -11.26486431	      1.09123630	      0.01904567	      5.37564070	      6.40571497	     -7.49999987	      0.78563837	      0.11499252	      4.82553035	     37.92075044	     13.86676511	     44.68261467	    123.58464081	     94.39154863	     61.50828899	     15.76755751	     71.43946600	    115.90687570	     69.75904071
      2.51666670	     -1.79725360	     -3.09808495	     -3.87786336	      0.05600875	      1.02995005	      0.05967063	     -0.35587473	      1.53794381	    -11.43034929	      2.45786693	      0.04289787	      5.75337550	      0.53783294	     -7.49999987	      1.10991159	     -0.81729760	    -11.78628463	      1.08970625	      0.01901896	      5.56571570	      6.42337750	     -7.49999987	      1.11292132	      0.15263474	      4.96927041	     36.95751413	     14.05850058	     47.90787489	    130.48502653	     96.49748332	     60.59205363	     15.59253716	     72.02018600	    117.88412154	     71.95800559
      2.53333330	     -2.08247391	     -3.02601966	     -4.40303296	      0.05414187	      1.03222881	      0.06089445	      0.04401632	      1.48329535	    -11.22273065	      2.63492037	      0.04598804	      5.83096355	      0.52356362	     -7.49999987	      1.36916724	     -0.80373268	    -11.97181799	      1.15457032	      0.02015105	      5.50338294	      6.10310416	     -7.49999987	      1.31500247	      0.05049682	      5.16616295	     36.32726671	     14.49766876	     51.93839105	    134.12871508	     98.93548687	     59.24760808	     15.22068984	     72.91359009	    119.58429800	     74.13974379
      2.55000000	     -2.19030190	     -3.00487459	     -4.89789419	      0.05508335	      1.02966896	      0.06008233	      0.16541275	      1.45656913	    -11.06892662	      2.69439919	      0.04702614	      6.16450499	      0.88385865	     -7.49999987	      1.48555363	     -0.81662689	    -12.17453271	      1.32843467	      0.02318556	      5.54752633	      5.64372787	     -7.49999987	      1.20963613	      0.06938170	      5.14240350	     35.71707848	     14.94529619	     55.15649190	    135.25066733	    100.58225141	     57.92154583	     14.49855014	     73.67720810	    120.92741805	     74.70315858
      2.56666670	     -2.42041322	     -2.94170358	     -5.33376172	      0.05057754	      1.02831989	      0.06088037	      0.61191482	      1.43016828	    -10.70611051	      2.82169561	      0.04924788	      6.59865885	      0.95077070	     -7.49999987	      1.84426947	     -0.80423654	    -12.35645934	      1.49287441	      0.02605557	      5.71084066	      5.34636243	     -7.49999987	      1.00675135	      0.02366767	      5.37221628	     34.78746266	     14.95198593	     55.45965963	    133.70896651	    100.55450278	     56.98563377	     13.67388902	     74.01277358	    121.67363722	     75.06945127
      2.58333330	     -2.56885805	     -2.95597608	     -5.69540101	      0.04779658	      1.03045704	      0.06238543	      1.06818640	      1.49843099	    -10.51945147	      2.98763541	      0.05214407	      6.57360321	      0.91318158	     -7.49999987	      2.05881647	     -0.90627271	    -12.69661138	      1.52499224	      0.02661614	      5.70348990	      5.38643432	     -7.49999987	      0.82354622	      0.02823690	      5.37684261	     34.03437487	     15.35769043	     56.84124689	    132.99512970	    100.71978143	     55.81838802	     12.74270294	     74.55757133	    122.43847860	     74.71246772
      2.60000000	     -2.82549193	     -2.94144413	     -6.28315099	      0.04110317	      1.03268345	      0.06131848	      1.82961196	      1.50190205	    -10.24489203	      3.28088966	      0.05726233	      6.50891700	      0.85426651	     -7.49999987	      2.56573940	     -0.95776727	    -12.98234088	      1.48726101	      0.02595760	      5.67460351	      5.37438889	     -7.49999987	      0.66812429	      0.06650086	      5.21593312	     33.34223171	     15.64977510	     57.28748194	    131.60026916	    100.67113207	     55.01386604	     11.69767950	     74.26067050	    122.75676917	     74.66570624
      2.61666670	     -2.77153092	     -3.01438377	     -6.73264218	      0.04336232	      1.03258385	      0.06179831	      2.18628978	      1.57747715	     -9.73382415	      3.56126251	      0.06215576	      6.07113898	      0.28348360	     -7.49999987	      2.70186352	     -1.09386514	    -13.00719461	      1.54716828	      0.02700318	      5.38006530	      4.85451719	     -7.49999987	      0.35407785	      0.15322852	      4.79448560	     32.40539035	     15.87149136	     56.98478629	    129.73778475	     97.67997201	     54.00845876	     10.71276208	     73.80813811	    122.82904134	     73.31073992
      2.63333330	     -2.86312321	     -3.08999021	     -7.12277792	      0.04718690	      1.03244523	      0.06330590	      2.47336251	      1.64671523	     -9.90081654	      3.90185154	      0.06810016	      5.91093421	      0.56728302	     -7.49999987	      2.85513196	     -1.29747095	    -13.56848424	      1.70814589	      0.02981277	      5.43460809	      5.36974265	     -7.49999987	      0.55126777	      0.25780758	      4.73701259	     31.42892360	     16.37247782	     58.16505223	    129.20135717	     99.60844550	     52.63029374	     10.28977203	     73.72728266	    122.89364640	     72.98294352
      2.65000000	     -2.90254495	     -3.10212413	     -7.45072040	      0.04551853	      1.03171371	      0.06312891	      2.74138317	      1.62910658	     -9.75840376	      4.16273195	      0.07265338	      5.91553393	      0.56608000	     -7.49999987	      2.79600226	     -1.35529998	    -13.88990638	      1.58069017	      0.02758825	      5.55175587	      5.71400096	     -7.49999987	      0.67115863	      0.39112338	      4.85609567	     30.52972776	     16.99023629	     59.44241681	    128.20107248	     99.21047862	     51.63892404	     10.07767674	     73.31622036	    122.46094350	     72.72880634
      2.66666670	     -2.73911498	     -3.12462731	     -7.41063732	      0.04895816	      1.03544736	      0.06435449	      2.62368256	      1.63912401	     -9.90515138	      4.22487798	      0.07373803	      5.68827630	      0.55716510	     -7.49999987	      2.48707837	     -1.40696219	    -14.02602104	      1.52264667	      0.02657520	      5.34625381	      5.72614621	     -7.49999987	      0.50033744	      0.42347985	      5.21714281	     29.77052757	     17.07575838	     60.08946106	    127.45670165	     99.21062819	     50.56989349	     10.23906923	     73.63953027	    122.00961476	     72.71941080
      2.68333330	     -2.61354249	     -3.14411068	     -7.66422040	      0.04460248	      1.03626254	      0.06579291	      2.59906810	      1.70562131	     -9.66299134	      4.21136001	      0.07350210	      5.50949920	      0.56309150	     -7.49999987	      2.21460396	     -1.45054163	    -14.60258965	      1.34903183	      0.02354505	      5.25459919	      6.25180097	     -7.49999987	      0.51872220	      0.64513749	      5.43917519	     29.22176087	     16.93044286	     59.65155237	    124.84316518	     96.79728326	     49.62822260	     10.05126607	     73.17991902	    121.25234469	     71.26721745
      2.70000000	     -2.40844126	     -3.12046827	     -7.56740501	      0.03865228	      1.03145098	      0.06437619	      2.73003365	      1.70940260	     -9.61492178	      4.45618652	      0.07777513	      5.50892159	      0.49659120	     -7.49999987	      2.35435306	     -1.44933063	    -14.49282682	      1.63593925	      0.02855253	      5.25149127	      6.17635135	     -7.49999987	      0.08472338	      0.63350165	      5.64266025	     29.05698081	     16.83398512	     59.60615542	    124.37989796	     96.78038028	     49.21853676	     10.09797446	     73.20557725	    121.01218747	     71.26309127
      2.71666670	     -2.27095640	     -3.18841791	     -7.31069269	      0.04483181	      1.03302836	      0.06325241	      2.79609346	      1.76045633	     -9.35498931	      4.85070644	      0.08466080	      5.43218005	     -0.16771223	     -7.49999987	      2.25532127	     -1.51741607	    -14.11880438	      1.78434060	      0.03114262	      5.05390468	      5.65911732	     -7.49999987	      0.16635637	      0.95521331	      5.73109132	     29.05885928	     16.85812624	     59.60838391	    122.92863699	     95.18577483	     48.46894886	     10.42097045	     72.54840322	    120.35425058	     70.76804569
      2.73333330	     -2.22817794	     -3.25219751	     -7.08976607	      0.04364207	      1.03263060	      0.06513839	      2.88935501	      1.87691525	     -9.21231697	      5.07432335	      0.08856365	      5.88455522	     -0.11549352	     -7.49999987	      2.26261381	     -1.60489406	    -14.30749111	      2.01498214	      0.03516807	      5.33525410	      5.97474789	     -7.49999987	      0.13203078	      1.20538579	      6.01402139	     29.32047429	     16.82648011	     59.85548092	    122.58405094	     94.92847230	     48.12601732	     10.84274152	     72.28668570	    120.09251724	     71.37385113
      2.75000000	     -2.08838636	     -3.27904803	     -6.70729098	      0.04144418	      1.03119888	      0.06534271	      2.82364386	      1.95630141	     -9.37475562	      5.08003150	      0.08866328	      6.23305878	      0.17221271	     -7.49999987	      2.32298263	     -1.64159176	    -14.18776183	      2.19222834	      0.03826160	      5.46181174	      6.05821400	     -7.49999987	     -0.08938389	      1.34544023	      6.08961337	     29.44412045	     16.56097578	     59.43683047	    122.19914096	     91.97967356	     48.05601862	     11.21229881	     72.21327621	    119.77919766	     70.03742059
